<svg width="200" height="200" xmlns="http://www.w3.org/2000/svg">

    <g>
        <title>background</title>
        <rect fill="none" id="canvas_background" height="202" width="202" y="-1" x="-1"/>
    </g>
    <g>
        <title>Layer 1</title>
        <path stroke="null" fill="green" id="svg_2" d="m83.333333,94.900375c0,-9.126462 7.5,-16.593566 16.666666,-16.593566s16.666665,7.467104 16.666665,16.593566s-7.499999,16.593567 -16.666665,16.593567s-16.666666,-7.467105 -16.666666,-16.593567zm16.666666,-74.671051c41.416663,0 74.999994,33.436037 74.999994,74.671051l24.999998,0l-33.333331,33.187134l-33.333331,-33.187134l24.999998,0c0,-32.108552 -26.083331,-58.077483 -58.333329,-58.077483s-58.333329,25.968932 -58.333329,58.077483s26.083331,58.077484 58.333329,58.077484c12.583332,0 24.249998,-4.065424 33.83333,-10.785818l11.833332,11.947368c-12.666666,9.624269 -28.499997,15.432017 -45.666663,15.432017c-41.416663,0 -74.999994,-33.436037 -74.999994,-74.671051s33.583331,-74.671051 74.999994,-74.671051z"/>
    </g>
</svg>