<svg width="200" height="200" xmlns="http://www.w3.org/2000/svg">

 <g>
  <title>background</title>
  <rect fill="none" id="canvas_background" height="202" width="202" y="-1" x="-1"/>
 </g>
 <g>
  <title>Layer 1</title>
  <path stroke="null" id="svg_1" fill="none" d="m1,0l147,0l0,120l-147,0l0,-120z"/>
  <path stroke="null" id="svg_2" d="m71.333335,101.499999c0,-9.90873 8.142856,-18.015872 18.095237,-18.015872s18.095237,8.107143 18.095237,18.015872s-8.142856,18.015872 -18.095237,18.015872s-18.095237,-8.107143 -18.095237,-18.015872zm18.095237,-81.071426c44.966663,0 81.428565,36.301983 81.428565,81.071426l27.142855,0l-36.190473,36.031745l-36.190473,-36.031745l27.142855,0c0,-34.860713 -28.319045,-63.055553 -63.333328,-63.055553s-63.333328,28.19484 -63.333328,63.055553s28.319045,63.055553 63.333328,63.055553c13.661904,0 26.328569,-4.413889 36.73333,-11.710317l12.847618,12.971428c-13.75238,10.449206 -30.942855,16.754761 -49.580948,16.754761c-44.966663,0 -81.428565,-36.301983 -81.428565,-81.071426s36.461902,-81.071426 81.428565,-81.071426z"/>
 </g>
</svg>